# xmcd
#
# Track frame offsets: 
#        150
#        5921
#        30151
#        44949
#        66449
#        74771
#        100936
#        122194
#        133250
#        139531
#        166498
#        178958
#        194508
#        200233
#        227021
#        244649
#        264275
#        269308
#        299256
#        311620
#
# Disc length: 4400 seconds
#
# Revision: 1
# Processed by: cddbd v1.5.2PL0 Copyright (c) Steve Scherf et al.
# Submitted via: ExactAudioCopy v0.99pb4
#
DISCID=42112e14
DTITLE=Hank Williams - Mother's Best [CD3]
DYEAR=1951
DGENRE=Country
TTITLE0=Mother's Best 3-B1
TTITLE1=Blue Eyes Cryin' In The Rain
TTITLE2=Bonaparte's Retreat
TTITLE3=I've Just Told Mama Goodbye
TTITLE4=Mother's Best 3-B2
TTITLE5=On The Banks Of The Old Ponchartrain
TTITLE6=Blue Love (Audrey)
TTITLE7=Calling You
TTITLE8=Mother's Best 4-A1
TTITLE9=My Sweet Love Ain't Around
TTITLE10=Model T Love (Audrey)
TTITLE11=Where The Soul Never Dies
TTITLE12=Mother's Best 4-A2
TTITLE13=Pins And Needles
TTITLE14=Four Flusher (Audrey)
TTITLE15=I Heard My Mother Prayin' For Me
TTITLE16=Mother's Best 4-B1
TTITLE17=Mind Your Own Business
TTITLE18=I Like That Kind (Audrey)
TTITLE19=When God Dips His Love
EXTD=
EXTT0=
EXTT1=
EXTT2=
EXTT3=
EXTT4=
EXTT5=
EXTT6=
EXTT7=
EXTT8=
EXTT9=
EXTT10=
EXTT11=
EXTT12=
EXTT13=
EXTT14=
EXTT15=
EXTT16=
EXTT17=
EXTT18=
EXTT19=
PLAYORDER=
